name Walk8.mot
datacolumns 19
datarows 12
range 3.17500000 3.23000000
endheader

                time	   L_ground_force_vx	   L_ground_force_vy	   L_ground_force_vz	   L_ground_force_px	   L_ground_force_py	   L_ground_force_pz	   R_ground_force_vx	   R_ground_force_vy	   R_ground_force_vz	   R_ground_force_px	   R_ground_force_py	   R_ground_force_pz	   L_ground_torque_x	   L_ground_torque_y	   L_ground_torque_z	   R_ground_torque_x	   R_ground_torque_y	   R_ground_torque_z	
          3.17500000	         21.87703918	        730.21435165	         21.66947527	         -0.17499966	          0.00000000	          0.03398063	         -0.02929211	          0.40668697	          0.00881982	          0.00046764	          0.00000000	          0.00019203	          0.00000000	         -0.58347496	          0.00000000	          0.00000000	          0.00599976	          0.00000000	
          3.18000000	         24.78431835	        740.93022949	         22.63639589	         -0.17331818	          0.00000000	          0.03437957	         -0.03847361	          0.45291302	          0.01058825	          0.00045430	          0.00000000	          0.00018523	          0.00000000	         -0.58161643	          0.00000000	          0.00000000	          0.00765062	          0.00000000	
          3.18500000	         27.85367673	        751.74069778	         23.34841785	         -0.17173635	          0.00000000	          0.03479967	         -0.04804618	          0.46914010	          0.01204009	          0.00037747	          0.00000000	          0.00015179	          0.00000000	         -0.59045276	          0.00000000	          0.00000000	          0.00928139	          0.00000000	
          3.19000000	         31.11560068	        762.61506293	         23.77673091	         -0.17025644	          0.00000000	          0.03523818	         -0.05704801	          0.43658614	          0.01281917	          0.00021111	          0.00000000	          0.00008092	          0.00000000	         -0.61590259	          0.00000000	          0.00000000	          0.01067973	          0.00000000	
          3.19500000	         34.60271387	        773.53726223	         23.91853146	         -0.16887950	          0.00000000	          0.03569245	         -0.06404966	          0.33197881	          0.01245310	         -0.00007435	          0.00000000	         -0.00003957	          0.00000000	         -0.66074176	          0.00000000	          0.00000000	          0.01154316	          0.00000000	
          3.20000000	         38.33995684	        784.49634593	         23.79351564	         -0.16760625	          0.00000000	          0.03615926	         -0.06706877	          0.12791396	          0.01034642	         -0.00051032	          0.00000000	         -0.00022258	          0.00000000	         -0.72549437	          0.00000000	          0.00000000	          0.01146598	          0.00000000	
          3.20500000	         42.33846600	        795.47445147	         23.43851313	         -0.16643649	          0.00000000	          0.03663411	         -0.06350525	         -0.20607602	          0.00578532	         -0.00112722	          0.00000000	         -0.00048051	          0.00000000	         -0.80874362	          0.00000000	          0.00000000	          0.00993154	          0.00000000	
          3.21000000	         46.59545528	        806.43646206	         22.90098041	         -0.16536786	          0.00000000	          0.03711136	         -0.05011638	         -0.70147824	         -0.00204066	         -0.00195019	          0.00000000	         -0.00082346	          0.00000000	         -0.90757752	          0.00000000	          0.00000000	          0.00631394	          0.00000000	
          3.21500000	         51.09961263	        817.32309554	         22.23408401	         -0.16439616	          0.00000000	          0.03758401	         -0.02305730	         -1.38748646	         -0.01399267	         -0.00299299	          0.00000000	         -0.00125670	          0.00000000	         -1.01822052	          0.00000000	          0.00000000	         -0.00010596	          0.00000000	
          3.22000000	         55.83752056	        828.05237851	         21.49057707	         -0.16351560	          0.00000000	          0.03804552	          0.02198171	         -2.28611771	         -0.03090471	         -0.00424999	          0.00000000	         -0.00177730	          0.00000000	         -1.13629945	          0.00000000	          0.00000000	         -0.01010395	          0.00000000	
          3.22500000	         60.79736375	        838.52342902	         20.71782212	         -0.16271891	          0.00000000	          0.03849089	          0.08950365	         -3.40548254	         -0.05346557	         -0.00568600	          0.00000000	         -0.00236991	          0.00000000	         -1.25756409	          0.00000000	          0.00000000	         -0.02444852	          0.00000000	
          3.23000000	         65.97016573	        848.61988614	         19.95862226	         -0.16199787	          0.00000000	          0.03891583	          0.18375769	         -4.73100573	         -0.08205272	         -0.00722404	          0.00000000	         -0.00300175	          0.00000000	         -1.37749597	          0.00000000	          0.00000000	         -0.04380195	          0.00000000	
